<!DOCTYPE svg PUBLIC "-//W3C//DTD SVG 1.1//EN" "http://www.w3.org/Graphics/SVG/1.1/DTD/svg11.dtd">
<!-- Uploaded to: SVG Repo, www.svgrepo.com, Transformed by: SVG Repo Mixer Tools -->
<svg fill="#195076ff" height="256px" width="256px" version="1.1" id="Layer_1" xmlns="http://www.w3.org/2000/svg" xmlns:xlink="http://www.w3.org/1999/xlink" viewBox="0 0 512.002 512.002" xml:space="preserve" stroke="#195076ff">
<g id="SVGRepo_bgCarrier" stroke-width="0"/>
<g id="SVGRepo_tracerCarrier" stroke-linecap="round" stroke-linejoin="round"/>
<g id="SVGRepo_iconCarrier"> <g> <g> <path d="M289.039,270.45c-3.397-2.649-8.302-2.042-10.953,1.358c-4.127,5.294-12.801,8.715-22.098,8.715 c-9.192,0-17.824-3.367-21.992-8.58c-2.69-3.366-7.602-3.913-10.969-1.222c-3.367,2.691-3.914,7.603-1.222,10.97 c7.23,9.041,20.008,14.44,34.183,14.44c14.143,0,27.328-5.643,34.409-14.728C293.047,278.004,292.44,273.101,289.039,270.45z"/> </g> </g> <g> <g> <path d="M340.411,162.004c-6.759-4.394-18.451-7.016-31.276-7.016c-12.998,0-24.779,2.682-31.513,7.172 c-3.586,2.391-4.555,7.238-2.164,10.824c1.505,2.255,3.978,3.475,6.501,3.475c1.488,0,2.993-0.425,4.323-1.312 c3.396-2.264,11.778-4.55,22.852-4.55c10.952,0,19.327,2.257,22.768,4.495c3.615,2.35,8.45,1.326,10.798-2.289 C345.05,169.188,344.024,164.353,340.411,162.004z"/> </g> </g> <g> <g> <path d="M234.499,162.159c-6.735-4.49-18.515-7.172-31.512-7.172c-12.826,0-24.518,2.623-31.277,7.016 c-3.614,2.349-4.639,7.184-2.289,10.798c2.349,3.614,7.182,4.638,10.798,2.29c3.441-2.236,11.815-4.495,22.769-4.495 c11.072,0.001,19.456,2.286,22.854,4.551c1.33,0.888,2.835,1.311,4.322,1.311c2.523,0,4.997-1.22,6.501-3.476 C239.055,169.397,238.085,164.551,234.499,162.159z"/> </g> </g> <g> <g> <circle cx="302.098" cy="197.025" r="10.522"/> </g> </g> <g> <g> <circle cx="209.876" cy="197.025" r="10.522"/> </g> </g> <g> <g> <path d="M498.306,293.794c-2.583-3.454-7.475-4.159-10.927-1.579c-3.452,2.581-4.158,7.472-1.578,10.925 c6.927,9.265,10.589,20.296,10.589,31.901c0,29.407-23.924,53.332-53.332,53.332c-29.406,0-53.331-23.924-53.331-53.332 c0-29.407,23.924-53.332,53.331-53.332c7.465,0,14.702,1.525,21.512,4.531c3.944,1.742,8.552-0.044,10.293-3.987 c1.741-3.944-0.045-8.552-3.988-10.293c-8.809-3.89-18.167-5.862-27.816-5.862c-38.014,0-68.94,30.927-68.94,68.941 c0,35.374,26.785,64.597,61.135,68.487v29.048l-49.268,16.959c-12.416-30.736-37.559-55.583-70.094-66.985 c-6.7-2.349-13.641-4.082-20.713-5.18v-21.571c15.386-5.367,29.624-13.897,41.816-25.252c3.154-2.938,3.33-7.876,0.392-11.031 c-2.935-3.154-7.874-3.331-11.031-0.392c-11.935,11.114-26.124,19.117-41.456,23.578c-9.378,2.732-19.144,4.112-28.911,4.112 c-9.634,0-19.103-1.492-28.394-3.97c-37.02-10.6-65.592-41.388-73-79.634l37.137-15.411c3.98-1.652,5.869-6.219,4.217-10.2 c-1.653-3.98-6.218-5.87-10.2-4.217c0,0-32.976,13.683-32.977,13.655c-0.04-1.17-0.066-2.338-0.066-3.506V187.18v-26.344 c0-6.382,0.583-12.72,1.737-18.942c3.911,1.824,8.218,2.797,12.676,2.797c8.797,0,16.722-3.802,22.219-9.851 c5.496,6.048,13.42,9.851,22.218,9.851c8.798,0,16.721-3.802,22.218-9.851c5.496,6.048,13.421,9.851,22.219,9.851 s16.721-3.802,22.218-9.851c5.496,6.048,13.421,9.851,22.219,9.851c8.798,0,16.721-3.802,22.218-9.851 c5.496,6.048,13.42,9.851,22.218,9.851c4.458,0,8.766-0.973,12.677-2.797c1.154,6.223,1.737,12.561,1.737,18.943v26.344v56.35 c0,4.818-0.349,9.641-1.014,14.413c-1.911,13.601-6.506,26.716-13.579,38.536c-2.214,3.699-1.009,8.492,2.689,10.705 c3.703,2.214,8.492,1.009,10.705-2.689c6.989-11.679,11.875-24.452,14.514-37.732c27.594-7.593,42.005-33.719,40.042-56.232 c-0.639-7.321-2.922-13.678-6.527-18.784v-30.912c0-82.772-67.34-150.112-150.112-150.112c-28.377,0-56.033,8-79.979,23.135 c-3.644,2.303-4.731,7.124-2.428,10.768c2.303,3.644,7.124,4.73,10.768,2.428c21.448-13.555,46.22-20.721,71.641-20.721 c74.165,0,134.503,60.337,134.503,134.503v19.224c-2.157-0.755-4.409-1.279-6.669-1.609c-2.611-0.375-5.255-0.493-7.89-0.389 c-0.35,0.014-0.7,0.031-1.05,0.054v-17.28c0-11.724-1.727-23.451-5.142-34.668c-0.833-2.735-3.208-4.864-6.014-5.396 c-3.785-0.718-6.336,2.098-8.955,4.303c-9.265,7.806-24.325,2.484-24.325-10.406c0-4.31-3.493-7.805-7.805-7.805 c-4.311,0-7.805,3.494-7.805,7.805c0,7.947-6.466,14.413-14.413,14.413c-7.948,0-14.414-6.466-14.414-14.413 c0-4.31-3.493-7.805-7.805-7.805c-4.311,0-7.805,3.494-7.805,7.805c0,7.947-6.465,14.413-14.413,14.413 c-7.948,0-14.414-6.466-14.414-14.413c0-4.31-3.493-7.805-7.805-7.805c-4.31,0-7.805,3.494-7.805,7.805 c0,7.802-6.685,14.432-14.478,14.413c-7.82-0.019-14.347-6.605-14.347-14.413c0-4.31-3.493-7.805-7.805-7.805 c-4.31,0-7.805,3.494-7.805,7.805c0,13.338-17.426,19.384-25.709,8.927c-2.254-2.845-6.35-3.758-9.595-2.142 c-1.894,0.943-3.356,2.632-3.99,4.715c-1.707,5.605-2.992,11.323-3.85,17.114c-0.103,0.691-2.674,34.717-1.291,34.833 c-4.452-0.28-8.861,0.118-13.185,1.209c-0.022,0.005-0.045,0.011-0.067,0.018c-0.791,0.213-1.585,0.448-2.358,0.717v-19.225 c0-36.011,14.109-69.87,39.726-95.337c3.057-3.039,3.071-7.981,0.031-11.038c-3.039-3.057-7.981-3.07-11.037-0.032 c-28.586,28.42-44.33,66.21-44.33,106.408v30.906c-3.609,5.106-5.893,11.467-6.532,18.79 c-1.534,17.584,6.932,37.363,23.857,48.804l-56.942,23.63c-2.914,1.209-4.813,4.054-4.813,7.209v31.963 C26.945,325.886,0,355.183,0,390.664c0,38.014,30.927,68.941,68.94,68.941c38.015,0,68.941-30.927,68.941-68.941 c0-35.268-26.625-64.417-60.826-68.447v-26.831l62.861-26.086c8.947,40.33,38.435,73.016,76.882,86.478v21.591 c-6.695,1.035-13.265,2.64-19.629,4.8c-0.011,0.003-0.022,0.005-0.033,0.009l-1.062,0.369 c-47.031,16.486-78.631,61.063-78.631,110.924c0,4.31,3.493,7.805,7.805,7.805h261.481c4.311,0,7.805-3.495,7.805-7.805 c0-9.976-1.285-19.733-3.685-29.103l54.752-18.846c3.149-1.084,5.265-4.049,5.265-7.38v-34.616 c34.352-3.89,61.137-33.112,61.137-68.487C512.002,320.041,507.266,305.778,498.306,293.794z M374.792,248.162 c0.059-1.543,0.09-3.089,0.09-4.632c0,0,0-49.752,0-49.753c0.024-0.484,6.081,0.041,6.656,0.13c3.71,0.579,7.3,2.178,9.996,4.824 c3.496,3.431,5.126,8.369,5.543,13.158c1.057,12.108-5.434,29.789-22.343,37.561C374.756,249.021,374.775,248.592,374.792,248.162 z M122.272,390.664c0,29.406-23.924,53.332-53.332,53.332c-29.406,0-53.331-23.924-53.331-53.332 c0-29.407,23.924-53.332,53.331-53.332C98.348,337.332,122.272,361.257,122.272,390.664z M114.894,211.889 c0.366-4.201,1.675-8.467,4.306-11.815c3.304-4.206,8.324-6.126,13.559-6.362c0.341-0.016,4.336-0.236,4.336,0.067v49.752 c0,1.972,0.049,3.951,0.147,5.921C120.331,241.68,113.839,223.996,114.894,211.889z M225.332,392.032 c4.011-0.376,7.076-3.742,7.076-7.77v-24.186c0.524,0.106,1.052,0.199,1.579,0.298c7.25,1.358,14.625,2.049,22.002,2.049 c7.687,0,15.597-0.588,23.117-2.259c0.154-0.03,0.309-0.056,0.463-0.087v24.184c0,4.028,3.065,7.394,7.075,7.771 c6.194,0.583,12.305,1.722,18.232,3.399c0.824,0.233-3.365,11.405-3.825,12.404c-7.918,17.185-25.633,28.47-44.542,28.47 c-18.072,0-34.784-10.196-43.404-26.113c-2.34-4.322-4.819-10.038-4.959-15.016C213.324,393.082,219.806,392.551,225.332,392.032z M133.352,485.667c1.599-20.848,9.75-40.97,23.053-57.097c9.166-11.111,22.63-23.179,36.754-28.02 c1.826,5.588,3.115,11.149,5.87,16.434c10.792,20.7,32.486,34.33,55.837,34.909c0.547,0.014,1.096,0.021,1.644,0.021 c23.039,0,44.692-12.638,56.179-32.578c1.666-2.892,3.106-5.915,4.294-9.034c0.283-0.742,3.283-9.128,2.75-9.374 c23.588,10.889,41.796,30.287,51.468,53.697l-24.298,8.364c-4.075,1.403-6.242,5.844-4.839,9.92 c1.378,4.004,5.919,6.217,9.92,4.839l24.059-8.281c1.281,5.276,2.158,10.688,2.581,16.202L133.352,485.667z"/> </g> </g> <g> <g> <path d="M478.005,324.001c-2.034-9.991-9.753-16.447-19.663-16.447c-4.891,0-10.097,1.626-15.285,4.746 c-5.187-3.12-10.393-4.746-15.284-4.746c-9.908,0-17.626,6.456-19.663,16.447c-2.855,14.011,5.898,33.097,31.891,44.149 c0.976,0.415,2.015,0.622,3.054,0.622c1.039,0,2.078-0.207,3.054-0.622C472.105,357.097,480.861,338.012,478.005,324.001z M443.059,352.393c-16.483-8.042-20.862-19.334-19.65-25.276c0.805-3.954,3.486-3.954,4.367-3.954 c1.645,0,5.193,0.617,10.468,4.753c2.827,2.219,6.805,2.219,9.632,0c5.274-4.137,8.823-4.753,10.469-4.753 c0.881,0,3.563,0,4.369,3.955C463.922,333.059,459.543,344.351,443.059,352.393z"/> </g> </g> <g> <g> <path d="M68.94,357.1c-24.895,0-44.396,14.743-44.396,33.564c0,18.82,19.501,33.564,44.396,33.564 c24.895,0,44.397-14.743,44.397-33.564C113.337,371.843,93.836,357.1,68.94,357.1z M55.069,406.312 c-8.812-3.109-14.914-9.028-14.914-15.648c0-6.62,6.102-12.538,14.914-15.648c-4.326,3.84-7.071,9.423-7.071,15.648 S50.743,402.472,55.069,406.312z M68.94,395.997c-2.941,0-5.333-2.392-5.333-5.333s2.392-5.334,5.333-5.334 s5.334,2.393,5.334,5.334S71.881,395.997,68.94,395.997z M82.812,406.313c4.326-3.839,7.071-9.423,7.071-15.648 c0.001-6.226-2.744-11.809-7.07-15.648c8.812,3.109,14.914,9.028,14.914,15.648C97.728,397.286,91.625,403.203,82.812,406.313z"/> </g> </g> </g>
</svg>